<svg width="133" height="17" viewBox="0 0 133 17" fill="none" xmlns="http://www.w3.org/2000/svg">
<path d="M15.1993 14.611C15.1993 14.809 15.164 14.9927 15.0933 15.1624C15.0226 15.332 14.9237 15.4805 14.7964 15.6077C14.6763 15.7279 14.5314 15.8233 14.3617 15.894C14.1921 15.9647 14.0083 16 13.8104 16H3.86508C3.61062 16 3.33495 15.9717 3.03807 15.9152C2.74827 15.8516 2.45846 15.7561 2.16865 15.6289C1.88591 15.5017 1.61378 15.3391 1.35225 15.1412C1.09071 14.9362 0.857455 14.6923 0.65247 14.4096C0.454553 14.1198 0.295513 13.7876 0.175349 13.4129C0.0551856 13.0313 -0.00489619 12.6036 -0.00489619 12.13V4.66574C-0.00489619 4.41127 0.0233776 4.13914 0.0799252 3.84933C0.143541 3.55246 0.238965 3.26265 0.366197 2.97991C0.49343 2.69011 0.659538 2.41444 0.864523 2.1529C1.06951 1.89137 1.31337 1.66165 1.59611 1.46373C1.88591 1.25875 2.21813 1.09617 2.59276 0.976008C2.96739 0.855844 3.39149 0.795762 3.86508 0.795762H15.0721V3.55246H3.86508C3.50459 3.55246 3.22892 3.64788 3.03807 3.83873C2.84722 4.02958 2.7518 4.31232 2.7518 4.68694V12.13C2.7518 12.4834 2.84722 12.7591 3.03807 12.957C3.23599 13.1479 3.51166 13.2433 3.86508 13.2433H12.4426V9.78683H5.10559V7.00893H13.8104C14.0083 7.00893 14.1921 7.04781 14.3617 7.12556C14.5314 7.19624 14.6763 7.2952 14.7964 7.42243C14.9237 7.54967 15.0226 7.6981 15.0933 7.86775C15.164 8.03032 15.1993 8.20703 15.1993 8.39788V14.611ZM32.9906 16H30.2339V12.2679H20.5431V16H17.7864V8.39788C17.7864 7.28813 17.9772 6.26674 18.3589 5.33371C18.7406 4.40067 19.2708 3.5984 19.9493 2.9269C20.6279 2.2554 21.4302 1.73233 22.3561 1.3577C23.2821 0.983076 24.2929 0.795762 25.3885 0.795762H31.6017C31.7925 0.795762 31.9728 0.831104 32.1424 0.901789C32.3121 0.972473 32.4605 1.07143 32.5877 1.19866C32.715 1.3259 32.8139 1.47433 32.8846 1.64398C32.9553 1.81362 32.9906 1.99386 32.9906 2.18471V16ZM20.5431 9.51116H30.2339V3.55246H25.3885C25.3037 3.55246 25.1234 3.56659 24.8478 3.59487C24.5792 3.61607 24.2646 3.67616 23.9041 3.77511C23.5507 3.87407 23.1761 4.02604 22.7803 4.23103C22.3844 4.43601 22.0204 4.71875 21.6882 5.07924C21.356 5.43973 21.0803 5.89212 20.8612 6.43639C20.6491 6.97359 20.5431 7.62742 20.5431 8.39788V9.51116ZM53.8991 16H51.1212V6.94531L46.2334 15.5441C46.1132 15.7632 45.9436 15.9293 45.7244 16.0424C45.5124 16.1555 45.2827 16.2121 45.0353 16.2121C44.7949 16.2121 44.5688 16.1555 44.3567 16.0424C44.1517 15.9293 43.9891 15.7632 43.869 15.5441L38.9599 6.94531V16H36.2032V1.97266C36.2032 1.65458 36.2951 1.37184 36.4789 1.12445C36.6698 0.877049 36.9172 0.710941 37.2211 0.626119C37.3695 0.590777 37.518 0.580174 37.6664 0.594311C37.8149 0.60138 37.9562 0.633188 38.0905 0.689735C38.2319 0.739215 38.3591 0.813433 38.4722 0.912392C38.5853 1.00428 38.6807 1.11738 38.7585 1.25168L45.0353 12.1618L51.3121 1.25168C51.4746 0.983076 51.6973 0.792228 51.98 0.679133C52.2698 0.566038 52.5702 0.548366 52.8813 0.626119C53.1781 0.710941 53.422 0.877049 53.6128 1.12445C53.8037 1.37184 53.8991 1.65458 53.8991 1.97266V16ZM69.6123 9.78683H60.9075V7.00893H69.6123V9.78683ZM70.8528 16H60.9075C60.5258 16 60.1087 15.9328 59.6564 15.7985C59.204 15.6642 58.7834 15.4451 58.3946 15.1412C58.013 14.8302 57.6913 14.4308 57.4298 13.9431C57.1753 13.4483 57.0481 12.8439 57.0481 12.13V2.18471C57.0481 1.99386 57.0834 1.81362 57.1541 1.64398C57.2248 1.47433 57.3202 1.3259 57.4404 1.19866C57.5676 1.07143 57.7161 0.972473 57.8857 0.901789C58.0554 0.831104 58.2391 0.795762 58.4371 0.795762H70.8528V3.55246H59.8048V12.13C59.8048 12.4905 59.9002 12.7662 60.0911 12.957C60.2819 13.1479 60.5611 13.2433 60.9287 13.2433H70.8528V16ZM83.364 7.00893H93.0442V0.795762H95.8009V16H93.0442V9.78683H83.364V16H80.6073V0.795762H83.364V7.00893ZM113.931 14.611C113.931 14.809 113.896 14.9927 113.825 15.1624C113.755 15.332 113.656 15.4805 113.529 15.6077C113.401 15.7279 113.253 15.8233 113.083 15.894C112.914 15.9647 112.733 16 112.543 16H106.329C105.743 16 105.149 15.9364 104.548 15.8092C103.947 15.6819 103.364 15.4875 102.799 15.226C102.24 14.9574 101.714 14.6181 101.219 14.2081C100.724 13.7982 100.289 13.314 99.9147 12.7556C99.5472 12.1901 99.2574 11.5469 99.0453 10.8259C98.8333 10.0978 98.7272 9.28851 98.7272 8.39788V0.795762H101.484V8.39788C101.484 9.17541 101.59 9.83278 101.802 10.37C102.021 10.9072 102.297 11.356 102.629 11.7165C102.961 12.077 103.325 12.3597 103.721 12.5647C104.117 12.7697 104.492 12.9217 104.845 13.0206C105.205 13.1196 105.52 13.1832 105.789 13.2115C106.064 13.2327 106.245 13.2433 106.329 13.2433H111.175V0.795762H113.931V14.611ZM132.317 12.6602C132.317 12.9994 132.256 13.3635 132.136 13.7522C132.023 14.141 131.832 14.5015 131.564 14.8337C131.302 15.1659 130.959 15.4451 130.535 15.6713C130.111 15.8904 129.592 16 128.977 16H118.512C118.314 16 118.13 15.9647 117.96 15.894C117.791 15.8233 117.642 15.7279 117.515 15.6077C117.395 15.4805 117.3 15.332 117.229 15.1624C117.158 14.9927 117.123 14.809 117.123 14.611V2.18471C117.123 1.99386 117.158 1.81362 117.229 1.64398C117.3 1.47433 117.395 1.3259 117.515 1.19866C117.642 1.07143 117.791 0.972473 117.96 0.901789C118.13 0.831104 118.314 0.795762 118.512 0.795762H127.736C128.075 0.795762 128.439 0.855844 128.828 0.976008C129.217 1.09617 129.577 1.29055 129.91 1.55915C130.249 1.82069 130.528 2.16351 130.747 2.58761C130.973 3.01172 131.087 3.53125 131.087 4.14621V4.66574C131.087 5.15346 131.005 5.68006 130.843 6.24554C130.68 6.80395 130.419 7.33408 130.058 7.83594C130.369 8.02679 130.659 8.25651 130.928 8.52511C131.203 8.79371 131.444 9.10473 131.649 9.45815C131.854 9.81157 132.016 10.2109 132.136 10.6563C132.256 11.1016 132.317 11.5928 132.317 12.13V12.6602ZM129.56 12.13C129.56 11.7695 129.503 11.4479 129.39 11.1652C129.277 10.8754 129.118 10.628 128.913 10.423C128.708 10.218 128.461 10.0625 128.171 9.95647C127.881 9.84338 127.556 9.78683 127.195 9.78683H120.982V7.00893H125.955C126.315 7.00893 126.641 6.95592 126.93 6.84989C127.22 6.7368 127.468 6.57775 127.673 6.37277C127.878 6.16778 128.033 5.92392 128.139 5.64119C128.252 5.35138 128.309 5.02623 128.309 4.66574V4.14621C128.309 3.75037 128.118 3.55246 127.736 3.55246H119.88V13.2433H128.977C129.026 13.2433 129.086 13.2398 129.157 13.2327C129.228 13.2256 129.291 13.2044 129.348 13.1691C129.404 13.1337 129.454 13.0737 129.496 12.9888C129.539 12.904 129.56 12.7874 129.56 12.639V12.13Z" fill="white"/>
</svg>
