<svg width="233" height="54" viewBox="0 0 233 54" fill="none" xmlns="http://www.w3.org/2000/svg">
<path d="M27.3806 25.5693C27.3806 25.9157 27.3187 26.2373 27.195 26.5342C27.0713 26.8311 26.8981 27.0908 26.6755 27.3135C26.4652 27.5238 26.2116 27.6908 25.9147 27.8145C25.6179 27.9382 25.2963 28 24.9499 28H7.54561C7.1003 28 6.61787 27.9505 6.09834 27.8516C5.59118 27.7402 5.08402 27.5732 4.57686 27.3506C4.08207 27.1279 3.60583 26.8434 3.14815 26.4971C2.69047 26.1383 2.28226 25.7116 1.92354 25.2168C1.57718 24.7096 1.29886 24.1283 1.08858 23.4727C0.878291 22.8047 0.773148 22.0563 0.773148 21.2275V8.16504C0.773148 7.71973 0.822627 7.24349 0.921585 6.73633C1.03291 6.2168 1.19991 5.70964 1.42256 5.21484C1.64522 4.70768 1.93591 4.22526 2.29463 3.76758C2.65336 3.3099 3.08011 2.90788 3.57491 2.56152C4.08207 2.2028 4.66345 1.91829 5.31905 1.70801C5.97464 1.49772 6.71683 1.39258 7.54561 1.39258H27.1579V6.2168H7.54561C6.91475 6.2168 6.43233 6.38379 6.09834 6.71777C5.76436 7.05176 5.59737 7.54655 5.59737 8.20215V21.2275C5.59737 21.846 5.76436 22.3285 6.09834 22.6748C6.4447 23.0088 6.92712 23.1758 7.54561 23.1758H22.5564V17.127H9.71651V12.2656H24.9499C25.2963 12.2656 25.6179 12.3337 25.9147 12.4697C26.2116 12.5934 26.4652 12.7666 26.6755 12.9893C26.8981 13.2119 27.0713 13.4717 27.195 13.7686C27.3187 14.0531 27.3806 14.3623 27.3806 14.6963V25.5693ZM58.5153 28H53.6911V21.4688H36.7321V28H31.9079V14.6963C31.9079 12.7542 32.2419 10.9668 32.9099 9.33398C33.5778 7.70117 34.5056 6.2972 35.6931 5.12207C36.8806 3.94694 38.2845 3.03158 39.905 2.37598C41.5254 1.72038 43.2943 1.39258 45.2116 1.39258H56.0847C56.4187 1.39258 56.7341 1.45443 57.031 1.57812C57.3278 1.70182 57.5876 1.875 57.8103 2.09766C58.0329 2.32031 58.2061 2.58008 58.3298 2.87695C58.4535 3.17383 58.5153 3.48926 58.5153 3.82324V28ZM36.7321 16.6445H53.6911V6.2168H45.2116C45.0632 6.2168 44.7478 6.24154 44.2653 6.29102C43.7953 6.32812 43.2448 6.43327 42.614 6.60645C41.9955 6.77962 41.3399 7.04557 40.6472 7.4043C39.9545 7.76302 39.3174 8.25781 38.736 8.88867C38.1547 9.51953 37.6722 10.3112 37.2888 11.2637C36.9177 12.2038 36.7321 13.348 36.7321 14.6963V16.6445ZM95.1052 28H90.2439V12.1543L81.6901 27.2021C81.4799 27.5856 81.183 27.8763 80.7995 28.0742C80.4284 28.2721 80.0264 28.3711 79.5935 28.3711C79.1729 28.3711 78.7771 28.2721 78.406 28.0742C78.0472 27.8763 77.7627 27.5856 77.5524 27.2021L68.9616 12.1543V28H64.1374V3.45215C64.1374 2.89551 64.2982 2.40072 64.6198 1.96777C64.9538 1.53483 65.3868 1.24414 65.9187 1.0957C66.1784 1.03385 66.4382 1.0153 66.698 1.04004C66.9577 1.05241 67.2051 1.10807 67.4401 1.20703C67.6875 1.29362 67.9102 1.4235 68.1081 1.59668C68.306 1.75749 68.473 1.9554 68.6091 2.19043L79.5935 21.2832L90.5778 2.19043C90.8623 1.72038 91.252 1.38639 91.7468 1.18848C92.2539 0.99056 92.7797 0.959635 93.3239 1.0957C93.8435 1.24414 94.2702 1.53483 94.6042 1.96777C94.9382 2.40072 95.1052 2.89551 95.1052 3.45215V28ZM122.603 17.127H107.37V12.2656H122.603V17.127ZM124.774 28H107.37C106.702 28 105.972 27.8825 105.18 27.6475C104.389 27.4124 103.653 27.029 102.972 26.4971C102.304 25.9528 101.742 25.2539 101.284 24.4004C100.839 23.5345 100.616 22.4769 100.616 21.2275V3.82324C100.616 3.48926 100.678 3.17383 100.801 2.87695C100.925 2.58008 101.092 2.32031 101.302 2.09766C101.525 1.875 101.785 1.70182 102.082 1.57812C102.379 1.45443 102.7 1.39258 103.047 1.39258H124.774V6.2168H105.44V21.2275C105.44 21.8584 105.607 22.3408 105.941 22.6748C106.275 23.0088 106.764 23.1758 107.407 23.1758H124.774V28ZM146.669 12.2656H163.609V1.39258H168.433V28H163.609V17.127H146.669V28H141.844V1.39258H146.669V12.2656ZM200.162 25.5693C200.162 25.9157 200.1 26.2373 199.976 26.5342C199.853 26.8311 199.679 27.0908 199.457 27.3135C199.234 27.5238 198.974 27.6908 198.677 27.8145C198.381 27.9382 198.065 28 197.731 28H186.858C185.831 28 184.792 27.8887 183.741 27.666C182.689 27.4434 181.669 27.1032 180.679 26.6455C179.702 26.1755 178.781 25.5817 177.915 24.8643C177.049 24.1468 176.288 23.2995 175.633 22.3223C174.989 21.3327 174.482 20.207 174.111 18.9453C173.74 17.6712 173.554 16.2549 173.554 14.6963V1.39258H178.379V14.6963C178.379 16.057 178.564 17.2074 178.935 18.1475C179.319 19.0876 179.801 19.873 180.383 20.5039C180.964 21.1348 181.601 21.6296 182.294 21.9883C182.986 22.347 183.642 22.613 184.26 22.7861C184.891 22.9593 185.442 23.0706 185.912 23.1201C186.394 23.1572 186.71 23.1758 186.858 23.1758H195.338V1.39258H200.162V25.5693ZM232.336 22.1553C232.336 22.749 232.231 23.3861 232.02 24.0664C231.822 24.7467 231.488 25.3776 231.018 25.959C230.561 26.5404 229.961 27.029 229.218 27.4248C228.476 27.8083 227.567 28 226.491 28H208.177C207.831 28 207.509 27.9382 207.213 27.8145C206.916 27.6908 206.656 27.5238 206.433 27.3135C206.223 27.0908 206.056 26.8311 205.932 26.5342C205.809 26.2373 205.747 25.9157 205.747 25.5693V3.82324C205.747 3.48926 205.809 3.17383 205.932 2.87695C206.056 2.58008 206.223 2.32031 206.433 2.09766C206.656 1.875 206.916 1.70182 207.213 1.57812C207.509 1.45443 207.831 1.39258 208.177 1.39258H224.32C224.914 1.39258 225.551 1.49772 226.231 1.70801C226.911 1.91829 227.542 2.25846 228.124 2.72852C228.717 3.1862 229.206 3.78613 229.59 4.52832C229.985 5.27051 230.183 6.17969 230.183 7.25586V8.16504C230.183 9.01855 230.041 9.9401 229.757 10.9297C229.472 11.9069 229.014 12.8346 228.383 13.7129C228.928 14.0469 229.435 14.4489 229.905 14.9189C230.387 15.389 230.808 15.9333 231.167 16.5518C231.525 17.1702 231.81 17.8691 232.02 18.6484C232.231 19.4277 232.336 20.2874 232.336 21.2275V22.1553ZM227.511 21.2275C227.511 20.5967 227.412 20.0339 227.215 19.5391C227.017 19.0319 226.738 18.599 226.38 18.2402C226.021 17.8815 225.588 17.6094 225.081 17.4238C224.574 17.2259 224.005 17.127 223.374 17.127H212.501V12.2656H221.203C221.834 12.2656 222.403 12.1729 222.91 11.9873C223.417 11.7894 223.85 11.5111 224.209 11.1523C224.567 10.7936 224.84 10.3669 225.025 9.87207C225.223 9.36491 225.322 8.7959 225.322 8.16504V7.25586C225.322 6.56315 224.988 6.2168 224.32 6.2168H210.571V23.1758H226.491C226.578 23.1758 226.683 23.1696 226.806 23.1572C226.93 23.1449 227.041 23.1077 227.14 23.0459C227.239 22.984 227.326 22.8789 227.4 22.7305C227.474 22.582 227.511 22.3779 227.511 22.1182V21.2275ZM21.572 40.2549H16.8156V50H14.6574V40.2549H9.89278V38.0967H21.572V40.2549ZM32.9025 50H30.7443V44.0483C30.7443 43.7661 30.6724 43.5531 30.5285 43.4092C30.3846 43.2598 30.1688 43.1851 29.8811 43.1851H25.988V41.0269H29.8811C30.0858 41.0269 30.3016 41.0518 30.5285 41.1016C30.7554 41.1458 30.9795 41.2178 31.2009 41.3174C31.4278 41.417 31.6436 41.547 31.8483 41.7075C32.0531 41.8625 32.2329 42.0534 32.3879 42.2803C32.5428 42.5016 32.6674 42.759 32.7614 43.0522C32.8555 43.3455 32.9025 43.6776 32.9025 44.0483V50ZM25.1164 50H22.9582V37.2334H25.1164V50ZM44.5319 43.9985C44.5319 44.2974 44.4794 44.6211 44.3742 44.9697C44.2691 45.3128 44.0975 45.6338 43.8596 45.9326C43.6272 46.2259 43.32 46.4722 42.9382 46.6714C42.5619 46.8706 42.1026 46.9702 41.5603 46.9702H37.6672V44.9199H41.5603C41.8536 44.9199 42.0804 44.8314 42.2409 44.6543C42.4014 44.4717 42.4816 44.2476 42.4816 43.9819C42.4816 43.6997 42.3903 43.4784 42.2077 43.3179C42.0306 43.1574 41.8148 43.0771 41.5603 43.0771H37.6672C37.3739 43.0771 37.147 43.1685 36.9865 43.3511C36.826 43.5282 36.7458 43.7495 36.7458 44.0151V47.0283C36.7458 47.3161 36.8343 47.5402 37.0114 47.7007C37.194 47.8612 37.4182 47.9414 37.6838 47.9414H41.5603V50H37.6672C37.3684 50 37.0446 49.9474 36.696 49.8423C36.3529 49.7371 36.0319 49.5684 35.7331 49.3359C35.4398 49.098 35.1936 48.7909 34.9943 48.4146C34.7951 48.0327 34.6955 47.5706 34.6955 47.0283V43.9985C34.6955 43.6997 34.7481 43.3787 34.8532 43.0356C34.9584 42.687 35.1272 42.366 35.3596 42.0728C35.5975 41.7739 35.9047 41.5249 36.281 41.3257C36.6628 41.1265 37.1249 41.0269 37.6672 41.0269H41.5603C41.8591 41.0269 42.18 41.0794 42.5231 41.1846C42.8718 41.2897 43.1927 41.4613 43.486 41.6992C43.7849 41.9316 44.0339 42.2388 44.2331 42.6206C44.4323 42.9969 44.5319 43.4562 44.5319 43.9985ZM61.3244 48.9126C61.3244 49.0675 61.2967 49.2114 61.2414 49.3442C61.1861 49.4771 61.1086 49.5933 61.009 49.6929C60.9149 49.7869 60.8015 49.8617 60.6687 49.917C60.5414 49.9723 60.403 50 60.2536 50H55.3728C55.1071 50 54.8221 49.9696 54.5178 49.9087C54.2189 49.8478 53.9229 49.751 53.6296 49.6182C53.3363 49.4798 53.0513 49.3083 52.7746 49.1035C52.5035 48.8932 52.2655 48.6414 52.0607 48.3481C51.856 48.0493 51.69 47.7062 51.5627 47.3188C51.441 46.9315 51.3801 46.4943 51.3801 46.0073V41.0269H53.5383V46.0073C53.5383 46.2896 53.5853 46.5441 53.6794 46.771C53.779 46.9924 53.9118 47.1833 54.0778 47.3438C54.2439 47.5042 54.4375 47.6287 54.6589 47.7173C54.8858 47.8003 55.1293 47.8418 55.3894 47.8418H59.1662V41.0269H61.3244V48.9126ZM73.2941 50H71.1359V45.0195C71.1359 44.7373 71.0861 44.4855 70.9865 44.2642C70.8925 44.0373 70.7624 43.8436 70.5964 43.6831C70.4304 43.5226 70.2339 43.4009 70.007 43.3179C69.7857 43.2293 69.545 43.1851 69.2849 43.1851H65.508V50H63.3498V42.0977C63.3498 41.9482 63.3775 41.8099 63.4328 41.6826C63.4882 41.5498 63.5656 41.4364 63.6652 41.3423C63.7648 41.2427 63.8811 41.1652 64.0139 41.1099C64.1467 41.0545 64.2878 41.0269 64.4372 41.0269H69.3015C69.5726 41.0269 69.8576 41.0573 70.1564 41.1182C70.4608 41.179 70.7596 41.2786 71.0529 41.417C71.3518 41.5498 71.634 41.7214 71.8996 41.9316C72.1708 42.1364 72.4087 42.3882 72.6135 42.687C72.8238 42.9803 72.9898 43.3206 73.1115 43.708C73.2333 44.0954 73.2941 44.5326 73.2941 45.0195V50ZM77.3781 39.1841H75.2199V37.2334H77.3781V39.1841ZM77.3781 50H75.2199V41.0269H77.3781V50ZM90.1613 41.0269C89.9178 41.785 89.6328 42.5321 89.3064 43.2681C88.9799 44.0041 88.6036 44.7069 88.1774 45.3765C87.7569 46.0405 87.2837 46.6576 86.758 47.2275C86.2378 47.792 85.6595 48.2817 85.0231 48.6968C84.3923 49.1063 83.7033 49.43 82.9563 49.668C82.2147 49.9004 81.4095 50.0166 80.5407 50.0166C80.3913 50.0166 80.2502 49.9889 80.1174 49.9336C79.9846 49.8783 79.8684 49.8035 79.7688 49.7095C79.6691 49.6099 79.5917 49.4964 79.5363 49.3691C79.481 49.2363 79.4533 49.0952 79.4533 48.9458V41.0269H81.6115V47.7754C82.1372 47.7754 82.6408 47.6619 83.1223 47.4351C83.6092 47.2082 84.0686 46.9093 84.5002 46.5386C84.9318 46.1623 85.3303 45.7362 85.6955 45.2603C86.0663 44.7843 86.3955 44.2974 86.6833 43.7993C86.9711 43.2957 87.2146 42.8032 87.4138 42.3218C87.6185 41.8403 87.7707 41.4087 87.8703 41.0269H90.1613ZM100.595 43.9985C100.595 44.2974 100.543 44.6211 100.438 44.9697C100.333 45.3128 100.161 45.6338 99.923 45.9326C99.6906 46.2259 99.3835 46.4722 99.0017 46.6714C98.6254 46.8706 98.1661 46.9702 97.6237 46.9702H93.7307V44.9199H97.6237C97.917 44.9199 98.1439 44.8314 98.3044 44.6543C98.4649 44.4717 98.5451 44.2476 98.5451 43.9819C98.5451 43.6997 98.4538 43.4784 98.2712 43.3179C98.0941 43.1574 97.8783 43.0771 97.6237 43.0771H93.7307C93.4374 43.0771 93.2105 43.1685 93.05 43.3511C92.8895 43.5282 92.8093 43.7495 92.8093 44.0151V47.0283C92.8093 47.3161 92.8978 47.5402 93.0749 47.7007C93.2575 47.8612 93.4816 47.9414 93.7473 47.9414H97.6237V50H93.7307C93.4318 50 93.1081 49.9474 92.7595 49.8423C92.4164 49.7371 92.0954 49.5684 91.7966 49.3359C91.5033 49.098 91.257 48.7909 91.0578 48.4146C90.8586 48.0327 90.759 47.5706 90.759 47.0283V43.9985C90.759 43.6997 90.8116 43.3787 90.9167 43.0356C91.0218 42.687 91.1906 42.366 91.423 42.0728C91.661 41.7739 91.9681 41.5249 92.3444 41.3257C92.7263 41.1265 93.1883 41.0269 93.7307 41.0269H97.6237C97.9226 41.0269 98.2435 41.0794 98.5866 41.1846C98.9353 41.2897 99.2562 41.4613 99.5495 41.6992C99.8483 41.9316 100.097 42.2388 100.297 42.6206C100.496 42.9969 100.595 43.4562 100.595 43.9985ZM109.901 43.1851H105.045C104.751 43.1851 104.53 43.2598 104.381 43.4092C104.231 43.5531 104.156 43.7661 104.156 44.0483V50H101.998V44.0483C101.998 43.6776 102.045 43.3455 102.139 43.0522C102.233 42.759 102.358 42.5016 102.513 42.2803C102.673 42.0534 102.856 41.8625 103.061 41.7075C103.265 41.547 103.479 41.417 103.7 41.3174C103.927 41.2178 104.154 41.1458 104.381 41.1016C104.613 41.0518 104.829 41.0269 105.028 41.0269H109.901V43.1851ZM120.003 46.9702C120.003 47.341 119.956 47.6758 119.862 47.9746C119.767 48.2679 119.643 48.528 119.488 48.7549C119.333 48.9762 119.153 49.1672 118.948 49.3276C118.744 49.4826 118.528 49.6099 118.301 49.7095C118.08 49.8091 117.853 49.8838 117.62 49.9336C117.393 49.9779 117.178 50 116.973 50H111.129V47.8418H116.956C117.25 47.8418 117.471 47.7671 117.62 47.6177C117.77 47.4683 117.844 47.2524 117.844 46.9702C117.817 46.3947 117.526 46.1069 116.973 46.1069H113.628C113.152 46.1069 112.748 46.0239 112.416 45.8579C112.084 45.6919 111.813 45.4844 111.602 45.2354C111.397 44.9863 111.248 44.7179 111.154 44.4302C111.065 44.1424 111.021 43.874 111.021 43.625C111.021 43.1436 111.107 42.7396 111.279 42.4131C111.45 42.0811 111.666 41.8127 111.926 41.6079C112.186 41.4032 112.468 41.2565 112.773 41.168C113.077 41.0739 113.362 41.0269 113.628 41.0269H118.932V43.1851H113.644C113.534 43.1851 113.445 43.1989 113.379 43.2266C113.318 43.2487 113.271 43.2819 113.238 43.3262C113.21 43.3649 113.193 43.4092 113.188 43.459C113.182 43.5033 113.179 43.5475 113.179 43.5918C113.185 43.6803 113.202 43.7495 113.229 43.7993C113.257 43.8491 113.29 43.8851 113.329 43.9072C113.373 43.9294 113.42 43.9432 113.47 43.9487C113.525 43.9487 113.578 43.9487 113.628 43.9487H116.973C117.526 43.9487 117.997 44.0483 118.384 44.2476C118.771 44.4468 119.084 44.6986 119.322 45.0029C119.56 45.3018 119.731 45.6283 119.837 45.9824C119.947 46.3366 120.003 46.6659 120.003 46.9702ZM131.175 43.9985C131.175 44.2974 131.123 44.6211 131.018 44.9697C130.913 45.3128 130.741 45.6338 130.503 45.9326C130.271 46.2259 129.964 46.4722 129.582 46.6714C129.205 46.8706 128.746 46.9702 128.204 46.9702H124.311V44.9199H128.204C128.497 44.9199 128.724 44.8314 128.884 44.6543C129.045 44.4717 129.125 44.2476 129.125 43.9819C129.125 43.6997 129.034 43.4784 128.851 43.3179C128.674 43.1574 128.458 43.0771 128.204 43.0771H124.311C124.017 43.0771 123.791 43.1685 123.63 43.3511C123.47 43.5282 123.389 43.7495 123.389 44.0151V47.0283C123.389 47.3161 123.478 47.5402 123.655 47.7007C123.838 47.8612 124.062 47.9414 124.327 47.9414H128.204V50H124.311C124.012 50 123.688 49.9474 123.34 49.8423C122.996 49.7371 122.675 49.5684 122.377 49.3359C122.083 49.098 121.837 48.7909 121.638 48.4146C121.439 48.0327 121.339 47.5706 121.339 47.0283V43.9985C121.339 43.6997 121.392 43.3787 121.497 43.0356C121.602 42.687 121.771 42.366 122.003 42.0728C122.241 41.7739 122.548 41.5249 122.925 41.3257C123.306 41.1265 123.768 41.0269 124.311 41.0269H128.204C128.503 41.0269 128.824 41.0794 129.167 41.1846C129.515 41.2897 129.836 41.4613 130.13 41.6992C130.428 41.9316 130.677 42.2388 130.877 42.6206C131.076 42.9969 131.175 43.4562 131.175 43.9985ZM147.918 46.9702C147.918 47.341 147.871 47.6758 147.777 47.9746C147.683 48.2679 147.558 48.528 147.404 48.7549C147.249 48.9762 147.069 49.1672 146.864 49.3276C146.659 49.4826 146.443 49.6099 146.217 49.7095C145.995 49.8091 145.768 49.8838 145.536 49.9336C145.309 49.9779 145.093 50 144.888 50H140.995C140.696 50 140.37 49.9474 140.016 49.8423C139.662 49.7371 139.332 49.5656 139.028 49.3276C138.729 49.0841 138.477 48.7715 138.273 48.3896C138.073 48.0023 137.974 47.5291 137.974 46.9702V44.0483C137.974 43.495 138.073 43.0273 138.273 42.6455C138.477 42.2581 138.729 41.9455 139.028 41.7075C139.332 41.464 139.662 41.2897 140.016 41.1846C140.37 41.0794 140.696 41.0269 140.995 41.0269H144.888C145.442 41.0269 145.912 41.1265 146.3 41.3257C146.687 41.5249 147 41.7767 147.238 42.0811C147.475 42.3799 147.647 42.7064 147.752 43.0605C147.863 43.4147 147.918 43.744 147.918 44.0483V46.9702ZM145.76 44.0649C145.76 43.7661 145.685 43.5448 145.536 43.4009C145.386 43.257 145.171 43.1851 144.888 43.1851H141.012C140.724 43.1851 140.506 43.2598 140.356 43.4092C140.207 43.5531 140.132 43.7661 140.132 44.0483V46.9702C140.132 47.2524 140.207 47.4683 140.356 47.6177C140.506 47.7671 140.724 47.8418 141.012 47.8418H144.888C145.182 47.8418 145.4 47.7671 145.544 47.6177C145.688 47.4683 145.76 47.2524 145.76 46.9702V44.0649ZM157.705 43.1851H152.824V41.0269H157.705V43.1851ZM157.705 39.292H152.841C152.547 39.292 152.326 39.3667 152.176 39.5161C152.027 39.66 151.952 39.873 151.952 40.1553V50H149.794V40.1553C149.794 39.7845 149.841 39.4525 149.935 39.1592C150.029 38.8659 150.154 38.6086 150.309 38.3872C150.469 38.1603 150.652 37.9694 150.857 37.8145C151.061 37.654 151.274 37.5239 151.496 37.4243C151.723 37.3247 151.95 37.2528 152.176 37.2085C152.403 37.1587 152.619 37.1338 152.824 37.1338H157.705V39.292ZM174.281 50.8633C174.281 51.234 174.234 51.5661 174.14 51.8594C174.046 52.1582 173.922 52.4183 173.767 52.6396C173.612 52.8665 173.432 53.0575 173.227 53.2124C173.022 53.3729 172.807 53.5029 172.58 53.6025C172.358 53.7021 172.132 53.7741 171.899 53.8184C171.672 53.8682 171.456 53.8931 171.252 53.8931H167.359V51.7349H171.252C171.545 51.7349 171.764 51.6602 171.907 51.5107C172.051 51.3613 172.123 51.1455 172.123 50.8633V44.0483C172.123 43.7661 172.051 43.5531 171.907 43.4092C171.764 43.2598 171.545 43.1851 171.252 43.1851H167.359C167.093 43.1851 166.883 43.2681 166.728 43.4341C166.573 43.5946 166.495 43.7993 166.495 44.0483V46.9702C166.495 47.2524 166.57 47.4683 166.719 47.6177C166.869 47.7671 167.087 47.8418 167.375 47.8418H171.252V50H167.359C167.154 50 166.938 49.9779 166.711 49.9336C166.484 49.8838 166.257 49.8091 166.03 49.7095C165.809 49.6099 165.596 49.4826 165.391 49.3276C165.187 49.1672 165.007 48.9762 164.852 48.7549C164.697 48.528 164.572 48.2679 164.478 47.9746C164.384 47.6758 164.337 47.341 164.337 46.9702V44.0483C164.337 43.8436 164.359 43.6278 164.404 43.4009C164.453 43.174 164.528 42.9499 164.628 42.7285C164.727 42.5016 164.855 42.2858 165.009 42.0811C165.17 41.8763 165.361 41.6965 165.582 41.5415C165.809 41.3866 166.069 41.262 166.363 41.168C166.656 41.0739 166.988 41.0269 167.359 41.0269H171.252C171.456 41.0269 171.672 41.0518 171.899 41.1016C172.132 41.1458 172.358 41.2178 172.58 41.3174C172.807 41.417 173.022 41.547 173.227 41.7075C173.432 41.8625 173.612 42.0534 173.767 42.2803C173.922 42.5016 174.046 42.759 174.14 43.0522C174.234 43.3455 174.281 43.6776 174.281 44.0483V50.8633ZM185.521 47.0283C185.521 47.3271 185.468 47.6509 185.363 47.9995C185.258 48.3426 185.086 48.6636 184.848 48.9624C184.616 49.2557 184.309 49.502 183.927 49.7012C183.551 49.9004 183.091 50 182.549 50H178.656C178.357 50 178.033 49.9474 177.685 49.8423C177.342 49.7371 177.021 49.5684 176.722 49.3359C176.429 49.098 176.182 48.7909 175.983 48.4146C175.784 48.0327 175.684 47.5706 175.684 47.0283C175.684 46.7295 175.737 46.4058 175.842 46.0571C175.947 45.7085 176.116 45.3875 176.348 45.0942C176.586 44.7954 176.893 44.5464 177.27 44.3472C177.652 44.1479 178.114 44.0483 178.656 44.0483H182.549V46.1069H178.656C178.363 46.1069 178.136 46.1982 177.975 46.3809C177.815 46.5579 177.735 46.7793 177.735 47.0449C177.735 47.3271 177.826 47.5485 178.008 47.709C178.197 47.8639 178.418 47.9414 178.673 47.9414H182.549C182.842 47.9414 183.069 47.8529 183.23 47.6758C183.39 47.4987 183.47 47.2773 183.47 47.0117V43.9985C183.47 43.7163 183.382 43.4922 183.205 43.3262C183.033 43.1602 182.815 43.0771 182.549 43.0771H177.809V41.0269H182.549C182.848 41.0269 183.169 41.0794 183.512 41.1846C183.861 41.2897 184.182 41.4613 184.475 41.6992C184.774 41.9316 185.023 42.2388 185.222 42.6206C185.421 42.9969 185.521 43.4562 185.521 43.9985V47.0283ZM195.374 50H193.216V44.0483C193.216 43.7661 193.141 43.5531 192.991 43.4092C192.842 43.2598 192.621 43.1851 192.327 43.1851H189.522V50H187.363V42.0977C187.363 41.9482 187.391 41.8099 187.446 41.6826C187.502 41.5498 187.579 41.4364 187.679 41.3423C187.779 41.2427 187.895 41.1652 188.028 41.1099C188.16 41.0545 188.301 41.0269 188.451 41.0269H192.344C192.643 41.0269 192.964 41.0794 193.307 41.1846C193.65 41.2897 193.976 41.4585 194.286 41.6909V41.0269H197.208C197.413 41.0269 197.629 41.0518 197.856 41.1016C198.083 41.1458 198.307 41.2178 198.528 41.3174C198.755 41.417 198.971 41.547 199.175 41.7075C199.38 41.8625 199.56 42.0534 199.715 42.2803C199.87 42.5016 199.995 42.759 200.089 43.0522C200.183 43.3455 200.23 43.6776 200.23 44.0483V50H198.071V44.0483C198.071 43.7661 198 43.5531 197.856 43.4092C197.717 43.2598 197.502 43.1851 197.208 43.1851H195.266C195.338 43.4507 195.374 43.7384 195.374 44.0483V50ZM211.876 43.9985C211.876 44.2974 211.823 44.6211 211.718 44.9697C211.613 45.3128 211.441 45.6338 211.203 45.9326C210.971 46.2259 210.664 46.4722 210.282 46.6714C209.906 46.8706 209.446 46.9702 208.904 46.9702H205.011V44.9199H208.904C209.197 44.9199 209.424 44.8314 209.585 44.6543C209.745 44.4717 209.825 44.2476 209.825 43.9819C209.825 43.6997 209.734 43.4784 209.551 43.3179C209.374 43.1574 209.159 43.0771 208.904 43.0771H205.011C204.718 43.0771 204.491 43.1685 204.33 43.3511C204.17 43.5282 204.09 43.7495 204.09 44.0151V47.0283C204.09 47.3161 204.178 47.5402 204.355 47.7007C204.538 47.8612 204.762 47.9414 205.028 47.9414H208.904V50H205.011C204.712 50 204.388 49.9474 204.04 49.8423C203.697 49.7371 203.376 49.5684 203.077 49.3359C202.784 49.098 202.537 48.7909 202.338 48.4146C202.139 48.0327 202.039 47.5706 202.039 47.0283V43.9985C202.039 43.6997 202.092 43.3787 202.197 43.0356C202.302 42.687 202.471 42.366 202.703 42.0728C202.941 41.7739 203.248 41.5249 203.625 41.3257C204.007 41.1265 204.469 41.0269 205.011 41.0269H208.904C209.203 41.0269 209.524 41.0794 209.867 41.1846C210.216 41.2897 210.536 41.4613 210.83 41.6992C211.129 41.9316 211.378 42.2388 211.577 42.6206C211.776 42.9969 211.876 43.4562 211.876 43.9985ZM222.003 46.9702C222.003 47.341 221.956 47.6758 221.862 47.9746C221.767 48.2679 221.643 48.528 221.488 48.7549C221.333 48.9762 221.153 49.1672 220.948 49.3276C220.744 49.4826 220.528 49.6099 220.301 49.7095C220.08 49.8091 219.853 49.8838 219.62 49.9336C219.393 49.9779 219.178 50 218.973 50H213.129V47.8418H218.956C219.25 47.8418 219.471 47.7671 219.62 47.6177C219.77 47.4683 219.844 47.2524 219.844 46.9702C219.817 46.3947 219.526 46.1069 218.973 46.1069H215.628C215.152 46.1069 214.748 46.0239 214.416 45.8579C214.084 45.6919 213.813 45.4844 213.602 45.2354C213.397 44.9863 213.248 44.7179 213.154 44.4302C213.065 44.1424 213.021 43.874 213.021 43.625C213.021 43.1436 213.107 42.7396 213.279 42.4131C213.45 42.0811 213.666 41.8127 213.926 41.6079C214.186 41.4032 214.468 41.2565 214.773 41.168C215.077 41.0739 215.362 41.0269 215.628 41.0269H220.932V43.1851H215.644C215.534 43.1851 215.445 43.1989 215.379 43.2266C215.318 43.2487 215.271 43.2819 215.238 43.3262C215.21 43.3649 215.193 43.4092 215.188 43.459C215.182 43.5033 215.179 43.5475 215.179 43.5918C215.185 43.6803 215.202 43.7495 215.229 43.7993C215.257 43.8491 215.29 43.8851 215.329 43.9072C215.373 43.9294 215.42 43.9432 215.47 43.9487C215.525 43.9487 215.578 43.9487 215.628 43.9487H218.973C219.526 43.9487 219.997 44.0483 220.384 44.2476C220.771 44.4468 221.084 44.6986 221.322 45.0029C221.56 45.3018 221.731 45.6283 221.837 45.9824C221.947 46.3366 222.003 46.6659 222.003 46.9702Z" fill="#563182"/>
</svg>
