<svg width="75" height="58" viewBox="0 0 75 58" fill="none" xmlns="http://www.w3.org/2000/svg">
<path d="M10 12.6958C10 11.207 11.207 10 12.6958 10H34.3926C35.8814 10 37.0885 11.207 37.0885 12.6958C37.0885 14.1847 35.8814 15.3917 34.3926 15.3917H12.6958C11.207 15.3917 10 14.1847 10 12.6958Z" fill="white"/>
<path d="M10 28.9698C10 27.4807 11.207 26.2739 12.6958 26.2739H61.4811C62.9699 26.2739 64.1769 27.4807 64.1769 28.9698C64.1769 30.4586 62.9699 31.6653 61.4811 31.6653H12.6958C11.207 31.6653 10 30.4586 10 28.9698Z" fill="white"/>
<path d="M12.6958 42.5474C11.207 42.5474 10 43.7544 10 45.2432C10 46.732 11.207 47.9391 12.6958 47.9391H45.228C46.7168 47.9391 47.9239 46.732 47.9239 45.2432C47.9239 43.7544 46.7168 42.5474 45.228 42.5474H12.6958Z" fill="white"/>
</svg>
