<svg width="288" height="65" viewBox="0 0 288 65" fill="none" xmlns="http://www.w3.org/2000/svg">
<path d="M50.6799 26.4414C50.6799 26.806 50.6148 27.1445 50.4846 27.457C50.3544 27.7695 50.1721 28.043 49.9377 28.2773C49.7163 28.4987 49.4494 28.6745 49.1369 28.8047C48.8244 28.9349 48.4859 29 48.1213 29H29.801C29.3322 29 28.8244 28.9479 28.2775 28.8438C27.7437 28.7266 27.2098 28.5508 26.676 28.3164C26.1551 28.082 25.6538 27.7826 25.1721 27.418C24.6903 27.0404 24.2606 26.5911 23.883 26.0703C23.5184 25.5365 23.2255 24.9245 23.0041 24.2344C22.7828 23.5312 22.6721 22.7435 22.6721 21.8711V8.12109C22.6721 7.65234 22.7242 7.15104 22.8283 6.61719C22.9455 6.07031 23.1213 5.53646 23.3557 5.01562C23.59 4.48177 23.896 3.97396 24.2736 3.49219C24.6512 3.01042 25.1005 2.58724 25.6213 2.22266C26.1551 1.84505 26.7671 1.54557 27.4572 1.32422C28.1473 1.10286 28.9286 0.992188 29.801 0.992188H50.4455V6.07031H29.801C29.1369 6.07031 28.6291 6.24609 28.2775 6.59766C27.926 6.94922 27.7502 7.47005 27.7502 8.16016V21.8711C27.7502 22.5221 27.926 23.0299 28.2775 23.3945C28.6421 23.7461 29.1499 23.9219 29.801 23.9219H45.6018V17.5547H32.0861V12.4375H48.1213C48.4859 12.4375 48.8244 12.5091 49.1369 12.6523C49.4494 12.7826 49.7163 12.9648 49.9377 13.1992C50.1721 13.4336 50.3544 13.707 50.4846 14.0195C50.6148 14.319 50.6799 14.6445 50.6799 14.9961V26.4414ZM83.4533 29H78.3752V22.125H60.5236V29H55.4455V14.9961C55.4455 12.9518 55.7971 11.0703 56.5002 9.35156C57.2033 7.63281 58.1799 6.15495 59.4299 4.91797C60.6799 3.68099 62.1578 2.71745 63.8635 2.02734C65.5692 1.33724 67.4312 0.992188 69.4494 0.992188H80.8947C81.2463 0.992188 81.5783 1.05729 81.8908 1.1875C82.2033 1.31771 82.4768 1.5 82.7111 1.73438C82.9455 1.96875 83.1278 2.24219 83.258 2.55469C83.3882 2.86719 83.4533 3.19922 83.4533 3.55078V29ZM60.5236 17.0469H78.3752V6.07031H69.4494C69.2932 6.07031 68.9611 6.09635 68.4533 6.14844C67.9585 6.1875 67.3791 6.29818 66.715 6.48047C66.064 6.66276 65.3739 6.94271 64.6447 7.32031C63.9156 7.69792 63.245 8.21875 62.633 8.88281C62.021 9.54688 61.5132 10.3802 61.1096 11.3828C60.7189 12.3724 60.5236 13.5768 60.5236 14.9961V17.0469ZM121.969 29H116.852V12.3203L107.848 28.1602C107.627 28.5638 107.314 28.8698 106.91 29.0781C106.52 29.2865 106.097 29.3906 105.641 29.3906C105.198 29.3906 104.781 29.2865 104.391 29.0781C104.013 28.8698 103.714 28.5638 103.492 28.1602L94.4494 12.3203V29H89.3713V3.16016C89.3713 2.57422 89.5406 2.05339 89.8791 1.59766C90.2307 1.14193 90.6864 0.835938 91.2463 0.679688C91.5197 0.614583 91.7932 0.595052 92.0666 0.621094C92.34 0.634115 92.6005 0.692708 92.8479 0.796875C93.1083 0.888021 93.3426 1.02474 93.551 1.20703C93.7593 1.3763 93.9351 1.58464 94.0783 1.83203L105.641 21.9297L117.203 1.83203C117.503 1.33724 117.913 0.985677 118.434 0.777344C118.968 0.56901 119.521 0.536458 120.094 0.679688C120.641 0.835938 121.09 1.14193 121.442 1.59766C121.793 2.05339 121.969 2.57422 121.969 3.16016V29ZM150.914 17.5547H134.879V12.4375H150.914V17.5547ZM153.199 29H134.879C134.176 29 133.408 28.8763 132.574 28.6289C131.741 28.3815 130.966 27.9779 130.25 27.418C129.547 26.8451 128.955 26.1094 128.473 25.2109C128.004 24.2995 127.77 23.1862 127.77 21.8711V3.55078C127.77 3.19922 127.835 2.86719 127.965 2.55469C128.095 2.24219 128.271 1.96875 128.492 1.73438C128.727 1.5 129 1.31771 129.313 1.1875C129.625 1.05729 129.964 0.992188 130.328 0.992188H153.199V6.07031H132.848V21.8711C132.848 22.5352 133.024 23.043 133.375 23.3945C133.727 23.7461 134.241 23.9219 134.918 23.9219H153.199V29ZM176.246 12.4375H194.078V0.992188H199.156V29H194.078V17.5547H176.246V29H171.168V0.992188H176.246V12.4375ZM232.555 26.4414C232.555 26.806 232.49 27.1445 232.36 27.457C232.229 27.7695 232.047 28.043 231.813 28.2773C231.578 28.4987 231.305 28.6745 230.992 28.8047C230.68 28.9349 230.348 29 229.996 29H218.551C217.47 29 216.377 28.8828 215.27 28.6484C214.163 28.4141 213.089 28.056 212.047 27.5742C211.018 27.0794 210.048 26.4544 209.137 25.6992C208.225 24.944 207.425 24.0521 206.735 23.0234C206.057 21.9818 205.524 20.7969 205.133 19.4688C204.742 18.1276 204.547 16.6367 204.547 14.9961V0.992188H209.625V14.9961C209.625 16.4284 209.821 17.6393 210.211 18.6289C210.615 19.6185 211.123 20.4453 211.735 21.1094C212.347 21.7734 213.017 22.2943 213.746 22.6719C214.475 23.0495 215.166 23.3294 215.817 23.5117C216.481 23.694 217.06 23.8112 217.555 23.8633C218.063 23.9023 218.395 23.9219 218.551 23.9219H227.477V0.992188H232.555V26.4414ZM266.422 22.8477C266.422 23.4727 266.311 24.1432 266.09 24.8594C265.882 25.5755 265.53 26.2396 265.035 26.8516C264.554 27.4635 263.922 27.9779 263.141 28.3945C262.36 28.7982 261.403 29 260.27 29H240.992C240.628 29 240.289 28.9349 239.977 28.8047C239.664 28.6745 239.391 28.4987 239.156 28.2773C238.935 28.043 238.759 27.7695 238.629 27.457C238.499 27.1445 238.434 26.806 238.434 26.4414V3.55078C238.434 3.19922 238.499 2.86719 238.629 2.55469C238.759 2.24219 238.935 1.96875 239.156 1.73438C239.391 1.5 239.664 1.31771 239.977 1.1875C240.289 1.05729 240.628 0.992188 240.992 0.992188H257.985C258.61 0.992188 259.28 1.10286 259.996 1.32422C260.712 1.54557 261.377 1.90365 261.988 2.39844C262.613 2.88021 263.128 3.51172 263.531 4.29297C263.948 5.07422 264.156 6.03125 264.156 7.16406V8.12109C264.156 9.01953 264.007 9.98958 263.707 11.0312C263.408 12.0599 262.926 13.0365 262.262 13.9609C262.835 14.3125 263.369 14.7357 263.863 15.2305C264.371 15.7253 264.814 16.2982 265.192 16.9492C265.569 17.6003 265.869 18.3359 266.09 19.1562C266.311 19.9766 266.422 20.8815 266.422 21.8711V22.8477ZM261.344 21.8711C261.344 21.207 261.24 20.6146 261.031 20.0938C260.823 19.5599 260.53 19.1042 260.153 18.7266C259.775 18.349 259.319 18.0625 258.785 17.8672C258.252 17.6589 257.653 17.5547 256.988 17.5547H245.543V12.4375H254.703C255.367 12.4375 255.966 12.3398 256.5 12.1445C257.034 11.9362 257.49 11.6432 257.867 11.2656C258.245 10.888 258.531 10.4388 258.727 9.91797C258.935 9.38411 259.039 8.78516 259.039 8.12109V7.16406C259.039 6.4349 258.688 6.07031 257.985 6.07031H243.512V23.9219H260.27C260.361 23.9219 260.472 23.9154 260.602 23.9023C260.732 23.8893 260.849 23.8503 260.953 23.7852C261.057 23.7201 261.149 23.6094 261.227 23.4531C261.305 23.2969 261.344 23.082 261.344 22.8086V21.8711ZM16.1975 45.8154H9.76241V59H6.84248V45.8154H0.396194V42.8955H16.1975V45.8154ZM31.5271 59H28.6071V50.9478C28.6071 50.5659 28.5098 50.2777 28.3151 50.083C28.1205 49.8809 27.8285 49.7798 27.4392 49.7798H22.1721V46.8599H27.4392C27.7162 46.8599 28.0082 46.8936 28.3151 46.9609C28.6221 47.0208 28.9253 47.1182 29.2248 47.2529C29.5318 47.3877 29.8238 47.5636 30.1008 47.7808C30.3778 47.9904 30.6211 48.2487 30.8308 48.5557C31.0404 48.8551 31.2089 49.2033 31.3361 49.6001C31.4634 49.9969 31.5271 50.4461 31.5271 50.9478V59ZM20.9929 59H18.073V41.7275H20.9929V59ZM47.2609 50.8804C47.2609 51.2847 47.1898 51.7227 47.0476 52.1943C46.9053 52.6585 46.6732 53.0928 46.3513 53.4971C46.0368 53.8939 45.6213 54.2271 45.1047 54.4966C44.5956 54.7661 43.9742 54.9009 43.2404 54.9009H37.9733V52.127H43.2404C43.6372 52.127 43.9442 52.0072 44.1613 51.7676C44.3785 51.5205 44.487 51.2173 44.487 50.8579C44.487 50.4761 44.3635 50.1766 44.1164 49.9595C43.8768 49.7424 43.5848 49.6338 43.2404 49.6338H37.9733C37.5765 49.6338 37.2696 49.7573 37.0524 50.0044C36.8353 50.244 36.7268 50.5435 36.7268 50.9028V54.9795C36.7268 55.3688 36.8466 55.672 37.0861 55.8892C37.3332 56.1063 37.6364 56.2148 37.9958 56.2148H43.2404V59H37.9733C37.569 59 37.1311 58.9289 36.6594 58.7866C36.1952 58.6444 35.7609 58.416 35.3566 58.1016C34.9598 57.7796 34.6267 57.3641 34.3571 56.855C34.0876 56.3384 33.9528 55.7132 33.9528 54.9795V50.8804C33.9528 50.4761 34.024 50.0418 34.1662 49.5776C34.3085 49.106 34.5368 48.6717 34.8513 48.2749C35.1732 47.8706 35.5887 47.5337 36.0979 47.2642C36.6145 46.9946 37.2396 46.8599 37.9733 46.8599H43.2404C43.6447 46.8599 44.079 46.931 44.5432 47.0732C45.0148 47.2155 45.4491 47.4476 45.8459 47.7695C46.2502 48.084 46.5871 48.4995 46.8566 49.0161C47.1262 49.5252 47.2609 50.1466 47.2609 50.8804ZM69.9802 57.5288C69.9802 57.7384 69.9427 57.9331 69.8679 58.1128C69.793 58.2925 69.6882 58.4497 69.5534 58.5845C69.4261 58.7118 69.2727 58.8128 69.093 58.8877C68.9208 58.9626 68.7336 59 68.5314 59H61.9279C61.5686 59 61.183 58.9588 60.7712 58.8765C60.3669 58.7941 59.9663 58.6631 59.5695 58.4834C59.1727 58.2962 58.7871 58.0641 58.4128 57.7871C58.0459 57.5026 57.724 57.1619 57.447 56.7651C57.17 56.3608 56.9453 55.8966 56.7731 55.3726C56.6084 54.8485 56.5261 54.257 56.5261 53.5981V46.8599H59.446V53.5981C59.446 53.98 59.5096 54.3244 59.6369 54.6313C59.7717 54.9308 59.9514 55.1891 60.176 55.4062C60.4006 55.6234 60.6626 55.7918 60.9621 55.9116C61.2691 56.0239 61.5985 56.0801 61.9504 56.0801H67.0603V46.8599H69.9802V57.5288ZM86.1745 59H83.2546V52.2617C83.2546 51.8799 83.1872 51.5392 83.0524 51.2397C82.9252 50.9328 82.7492 50.6707 82.5246 50.4536C82.3 50.2365 82.0342 50.0718 81.7272 49.9595C81.4278 49.8397 81.1021 49.7798 80.7502 49.7798H75.6403V59H72.7204V48.3086C72.7204 48.1064 72.7578 47.9193 72.8327 47.7471C72.9076 47.5674 73.0124 47.4139 73.1472 47.2866C73.2819 47.1519 73.4392 47.047 73.6189 46.9722C73.7985 46.8973 73.9895 46.8599 74.1916 46.8599H80.7727C81.1395 46.8599 81.5251 46.901 81.9294 46.9834C82.3412 47.0658 82.7455 47.2005 83.1423 47.3877C83.5466 47.5674 83.9284 47.7995 84.2878 48.084C84.6547 48.361 84.9766 48.7017 85.2536 49.106C85.5381 49.5028 85.7627 49.9632 85.9274 50.4873C86.0922 51.0114 86.1745 51.6029 86.1745 52.2617V59ZM91.6999 44.3667H88.78V41.7275H91.6999V44.3667ZM91.6999 59H88.78V46.8599H91.6999V59ZM108.995 46.8599C108.665 47.8856 108.28 48.8963 107.838 49.8921C107.396 50.8879 106.887 51.8387 106.311 52.7446C105.742 53.6431 105.102 54.4779 104.39 55.249C103.687 56.0127 102.904 56.6753 102.043 57.2368C101.19 57.7909 100.258 58.2288 99.2468 58.5508C98.2435 58.8652 97.1542 59.0225 95.9787 59.0225C95.7766 59.0225 95.5856 58.985 95.406 58.9102C95.2263 58.8353 95.069 58.7342 94.9343 58.6069C94.7995 58.4722 94.6947 58.3187 94.6198 58.1465C94.545 57.9668 94.5075 57.7759 94.5075 57.5737V46.8599H97.4274V55.9902C98.1387 55.9902 98.82 55.8368 99.4714 55.5298C100.13 55.2228 100.752 54.8185 101.336 54.3169C101.92 53.8078 102.459 53.2313 102.953 52.5874C103.454 51.9435 103.9 51.2847 104.289 50.6108C104.679 49.9295 105.008 49.2632 105.278 48.6118C105.555 47.9604 105.76 47.3765 105.895 46.8599H108.995ZM123.112 50.8804C123.112 51.2847 123.04 51.7227 122.898 52.1943C122.756 52.6585 122.524 53.0928 122.202 53.4971C121.887 53.8939 121.472 54.2271 120.955 54.4966C120.446 54.7661 119.825 54.9009 119.091 54.9009H113.824V52.127H119.091C119.488 52.127 119.795 52.0072 120.012 51.7676C120.229 51.5205 120.338 51.2173 120.338 50.8579C120.338 50.4761 120.214 50.1766 119.967 49.9595C119.727 49.7424 119.435 49.6338 119.091 49.6338H113.824C113.427 49.6338 113.12 49.7573 112.903 50.0044C112.686 50.244 112.577 50.5435 112.577 50.9028V54.9795C112.577 55.3688 112.697 55.672 112.937 55.8892C113.184 56.1063 113.487 56.2148 113.846 56.2148H119.091V59H113.824C113.42 59 112.982 58.9289 112.51 58.7866C112.046 58.6444 111.612 58.416 111.207 58.1016C110.81 57.7796 110.477 57.3641 110.208 56.855C109.938 56.3384 109.803 55.7132 109.803 54.9795V50.8804C109.803 50.4761 109.875 50.0418 110.017 49.5776C110.159 49.106 110.387 48.6717 110.702 48.2749C111.024 47.8706 111.439 47.5337 111.948 47.2642C112.465 46.9946 113.09 46.8599 113.824 46.8599H119.091C119.495 46.8599 119.93 46.931 120.394 47.0732C120.865 47.2155 121.3 47.4476 121.696 47.7695C122.101 48.084 122.438 48.4995 122.707 49.0161C122.977 49.5252 123.112 50.1466 123.112 50.8804ZM135.701 49.7798H129.131C128.734 49.7798 128.435 49.8809 128.233 50.083C128.03 50.2777 127.929 50.5659 127.929 50.9478V59H125.009V50.9478C125.009 50.4461 125.073 49.9969 125.2 49.6001C125.328 49.2033 125.496 48.8551 125.706 48.5557C125.923 48.2487 126.17 47.9904 126.447 47.7808C126.724 47.5636 127.012 47.3877 127.312 47.2529C127.619 47.1182 127.926 47.0208 128.233 46.9609C128.547 46.8936 128.839 46.8599 129.109 46.8599H135.701V49.7798ZM149.368 54.9009C149.368 55.4025 149.305 55.8555 149.177 56.2598C149.05 56.6566 148.882 57.0085 148.672 57.3154C148.462 57.6149 148.219 57.8732 147.942 58.0903C147.665 58.3 147.373 58.4722 147.066 58.6069C146.767 58.7417 146.46 58.8428 146.145 58.9102C145.838 58.9701 145.546 59 145.269 59H137.363V56.0801H145.247C145.644 56.0801 145.943 55.979 146.145 55.7769C146.347 55.5747 146.448 55.2827 146.448 54.9009C146.411 54.1222 146.018 53.7329 145.269 53.7329H140.743C140.099 53.7329 139.553 53.6206 139.104 53.396C138.654 53.1714 138.288 52.8906 138.003 52.5537C137.726 52.2168 137.524 51.8537 137.397 51.4644C137.277 51.075 137.217 50.7119 137.217 50.375C137.217 49.7236 137.333 49.1771 137.565 48.7354C137.797 48.2861 138.089 47.923 138.441 47.646C138.793 47.369 139.175 47.1706 139.587 47.0508C139.998 46.9235 140.384 46.8599 140.743 46.8599H147.92V49.7798H140.766C140.616 49.7798 140.496 49.7985 140.406 49.8359C140.324 49.8659 140.26 49.9108 140.216 49.9707C140.178 50.0231 140.156 50.083 140.148 50.1504C140.141 50.2103 140.137 50.2702 140.137 50.3301C140.144 50.4499 140.167 50.5435 140.204 50.6108C140.242 50.6782 140.287 50.7269 140.339 50.7568C140.399 50.7868 140.463 50.8055 140.53 50.813C140.605 50.813 140.676 50.813 140.743 50.813H145.269C146.018 50.813 146.654 50.9478 147.178 51.2173C147.703 51.4868 148.126 51.8275 148.447 52.2393C148.769 52.6436 149.002 53.0853 149.144 53.5645C149.293 54.0436 149.368 54.4891 149.368 54.9009ZM164.485 50.8804C164.485 51.2847 164.413 51.7227 164.271 52.1943C164.129 52.6585 163.897 53.0928 163.575 53.4971C163.26 53.8939 162.845 54.2271 162.328 54.4966C161.819 54.7661 161.198 54.9009 160.464 54.9009H155.197V52.127H160.464C160.861 52.127 161.168 52.0072 161.385 51.7676C161.602 51.5205 161.711 51.2173 161.711 50.8579C161.711 50.4761 161.587 50.1766 161.34 49.9595C161.1 49.7424 160.808 49.6338 160.464 49.6338H155.197C154.8 49.6338 154.493 49.7573 154.276 50.0044C154.059 50.244 153.95 50.5435 153.95 50.9028V54.9795C153.95 55.3688 154.07 55.672 154.31 55.8892C154.557 56.1063 154.86 56.2148 155.219 56.2148H160.464V59H155.197C154.793 59 154.355 58.9289 153.883 58.7866C153.419 58.6444 152.985 58.416 152.58 58.1016C152.183 57.7796 151.85 57.3641 151.581 56.855C151.311 56.3384 151.176 55.7132 151.176 54.9795V50.8804C151.176 50.4761 151.248 50.0418 151.39 49.5776C151.532 49.106 151.76 48.6717 152.075 48.2749C152.397 47.8706 152.812 47.5337 153.321 47.2642C153.838 46.9946 154.463 46.8599 155.197 46.8599H160.464C160.868 46.8599 161.303 46.931 161.767 47.0732C162.238 47.2155 162.673 47.4476 163.07 47.7695C163.474 48.084 163.811 48.4995 164.08 49.0161C164.35 49.5252 164.485 50.1466 164.485 50.8804ZM187.136 54.9009C187.136 55.4025 187.073 55.8555 186.946 56.2598C186.818 56.6566 186.65 57.0085 186.44 57.3154C186.231 57.6149 185.987 57.8732 185.71 58.0903C185.433 58.3 185.141 58.4722 184.834 58.6069C184.535 58.7417 184.228 58.8428 183.913 58.9102C183.606 58.9701 183.314 59 183.037 59H177.77C177.366 59 176.924 58.9289 176.445 58.7866C175.966 58.6444 175.52 58.4123 175.109 58.0903C174.704 57.7609 174.364 57.3379 174.087 56.8213C173.817 56.2972 173.682 55.6571 173.682 54.9009V50.9478C173.682 50.1991 173.817 49.5664 174.087 49.0498C174.364 48.5257 174.704 48.1027 175.109 47.7808C175.52 47.4513 175.966 47.2155 176.445 47.0732C176.924 46.931 177.366 46.8599 177.77 46.8599H183.037C183.786 46.8599 184.422 46.9946 184.946 47.2642C185.471 47.5337 185.894 47.8743 186.216 48.2861C186.537 48.6904 186.77 49.1322 186.912 49.6113C187.062 50.0905 187.136 50.536 187.136 50.9478V54.9009ZM184.217 50.9702C184.217 50.5659 184.115 50.2664 183.913 50.0718C183.711 49.8771 183.419 49.7798 183.037 49.7798H177.793C177.403 49.7798 177.108 49.8809 176.905 50.083C176.703 50.2777 176.602 50.5659 176.602 50.9478V54.9009C176.602 55.2827 176.703 55.5747 176.905 55.7769C177.108 55.979 177.403 56.0801 177.793 56.0801H183.037C183.434 56.0801 183.73 55.979 183.925 55.7769C184.119 55.5747 184.217 55.2827 184.217 54.9009V50.9702ZM200.377 49.7798H193.774V46.8599H200.377V49.7798ZM200.377 44.5127H193.796C193.399 44.5127 193.1 44.6138 192.898 44.8159C192.696 45.0106 192.594 45.2988 192.594 45.6807V59H189.675V45.6807C189.675 45.179 189.738 44.7298 189.865 44.333C189.993 43.9362 190.161 43.5881 190.371 43.2886C190.588 42.9816 190.835 42.7233 191.112 42.5137C191.389 42.2965 191.677 42.1206 191.977 41.9858C192.284 41.8511 192.591 41.7537 192.898 41.6938C193.205 41.6265 193.497 41.5928 193.774 41.5928H200.377V44.5127ZM222.804 60.168C222.804 60.6696 222.741 61.1188 222.613 61.5156C222.486 61.9199 222.318 62.2718 222.108 62.5713C221.898 62.8783 221.655 63.1366 221.378 63.3462C221.101 63.5633 220.809 63.7393 220.502 63.874C220.203 64.0088 219.896 64.1061 219.581 64.166C219.274 64.2334 218.982 64.2671 218.705 64.2671H213.438V61.3472H218.705C219.102 61.3472 219.398 61.2461 219.592 61.0439C219.787 60.8418 219.884 60.5498 219.884 60.168V50.9478C219.884 50.5659 219.787 50.2777 219.592 50.083C219.398 49.8809 219.102 49.7798 218.705 49.7798H213.438C213.079 49.7798 212.794 49.8921 212.585 50.1167C212.375 50.3338 212.27 50.6108 212.27 50.9478V54.9009C212.27 55.2827 212.371 55.5747 212.573 55.7769C212.776 55.979 213.071 56.0801 213.461 56.0801H218.705V59H213.438C213.161 59 212.869 58.9701 212.562 58.9102C212.255 58.8428 211.948 58.7417 211.641 58.6069C211.342 58.4722 211.054 58.3 210.777 58.0903C210.5 57.8732 210.256 57.6149 210.047 57.3154C209.837 57.0085 209.668 56.6566 209.541 56.2598C209.414 55.8555 209.35 55.4025 209.35 54.9009V50.9478C209.35 50.6707 209.38 50.3787 209.44 50.0718C209.508 49.7648 209.609 49.4616 209.743 49.1621C209.878 48.8551 210.05 48.5632 210.26 48.2861C210.477 48.0091 210.735 47.7658 211.035 47.5562C211.342 47.3465 211.694 47.1781 212.091 47.0508C212.487 46.9235 212.937 46.8599 213.438 46.8599H218.705C218.982 46.8599 219.274 46.8936 219.581 46.9609C219.896 47.0208 220.203 47.1182 220.502 47.2529C220.809 47.3877 221.101 47.5636 221.378 47.7808C221.655 47.9904 221.898 48.2487 222.108 48.5557C222.318 48.8551 222.486 49.2033 222.613 49.6001C222.741 49.9969 222.804 50.4461 222.804 50.9478V60.168ZM238.01 54.9795C238.01 55.3838 237.939 55.8218 237.797 56.2935C237.655 56.7576 237.423 57.1919 237.101 57.5962C236.786 57.993 236.371 58.3262 235.854 58.5957C235.345 58.8652 234.724 59 233.99 59H228.723C228.319 59 227.881 58.9289 227.409 58.7866C226.945 58.6444 226.51 58.416 226.106 58.1016C225.709 57.7796 225.376 57.3641 225.107 56.855C224.837 56.3384 224.702 55.7132 224.702 54.9795C224.702 54.5752 224.773 54.1372 224.916 53.6655C225.058 53.1938 225.286 52.7596 225.601 52.3628C225.923 51.9585 226.338 51.6216 226.847 51.3521C227.364 51.0825 227.989 50.9478 228.723 50.9478H233.99V53.7329H228.723C228.326 53.7329 228.019 53.8564 227.802 54.1035C227.585 54.3431 227.476 54.6426 227.476 55.002C227.476 55.3838 227.6 55.6833 227.847 55.9004C228.101 56.11 228.401 56.2148 228.745 56.2148H233.99C234.387 56.2148 234.694 56.0951 234.911 55.8555C235.128 55.6159 235.237 55.3164 235.237 54.957V50.8804C235.237 50.4985 235.117 50.1953 234.877 49.9707C234.645 49.7461 234.349 49.6338 233.99 49.6338H227.577V46.8599H233.99C234.394 46.8599 234.828 46.931 235.293 47.0732C235.764 47.2155 236.199 47.4476 236.595 47.7695C237 48.084 237.337 48.4995 237.606 49.0161C237.876 49.5252 238.01 50.1466 238.01 50.8804V54.9795ZM251.341 59H248.421V50.9478C248.421 50.5659 248.32 50.2777 248.118 50.083C247.916 49.8809 247.616 49.7798 247.219 49.7798H243.424V59H240.504V48.3086C240.504 48.1064 240.541 47.9193 240.616 47.7471C240.691 47.5674 240.796 47.4139 240.93 47.2866C241.065 47.1519 241.222 47.047 241.402 46.9722C241.582 46.8973 241.773 46.8599 241.975 46.8599H247.242C247.646 46.8599 248.08 46.931 248.545 47.0732C249.009 47.2155 249.451 47.4438 249.87 47.7583V46.8599H253.823C254.1 46.8599 254.392 46.8936 254.699 46.9609C255.006 47.0208 255.309 47.1182 255.609 47.2529C255.916 47.3877 256.208 47.5636 256.485 47.7808C256.762 47.9904 257.005 48.2487 257.215 48.5557C257.424 48.8551 257.593 49.2033 257.72 49.6001C257.847 49.9969 257.911 50.4461 257.911 50.9478V59H254.991V50.9478C254.991 50.5659 254.894 50.2777 254.699 50.083C254.512 49.8809 254.22 49.7798 253.823 49.7798H251.195C251.292 50.1392 251.341 50.5285 251.341 50.9478V59ZM273.667 50.8804C273.667 51.2847 273.596 51.7227 273.454 52.1943C273.312 52.6585 273.079 53.0928 272.758 53.4971C272.443 53.8939 272.028 54.2271 271.511 54.4966C271.002 54.7661 270.38 54.9009 269.647 54.9009H264.38V52.127H269.647C270.043 52.127 270.35 52.0072 270.568 51.7676C270.785 51.5205 270.893 51.2173 270.893 50.8579C270.893 50.4761 270.77 50.1766 270.523 49.9595C270.283 49.7424 269.991 49.6338 269.647 49.6338H264.38C263.983 49.6338 263.676 49.7573 263.459 50.0044C263.242 50.244 263.133 50.5435 263.133 50.9028V54.9795C263.133 55.3688 263.253 55.672 263.492 55.8892C263.739 56.1063 264.043 56.2148 264.402 56.2148H269.647V59H264.38C263.975 59 263.537 58.9289 263.066 58.7866C262.601 58.6444 262.167 58.416 261.763 58.1016C261.366 57.7796 261.033 57.3641 260.763 56.855C260.494 56.3384 260.359 55.7132 260.359 54.9795V50.8804C260.359 50.4761 260.43 50.0418 260.572 49.5776C260.715 49.106 260.943 48.6717 261.258 48.2749C261.579 47.8706 261.995 47.5337 262.504 47.2642C263.021 46.9946 263.646 46.8599 264.38 46.8599H269.647C270.051 46.8599 270.485 46.931 270.949 47.0732C271.421 47.2155 271.855 47.4476 272.252 47.7695C272.656 48.084 272.993 48.4995 273.263 49.0161C273.532 49.5252 273.667 50.1466 273.667 50.8804ZM287.368 54.9009C287.368 55.4025 287.305 55.8555 287.177 56.2598C287.05 56.6566 286.882 57.0085 286.672 57.3154C286.462 57.6149 286.219 57.8732 285.942 58.0903C285.665 58.3 285.373 58.4722 285.066 58.6069C284.767 58.7417 284.46 58.8428 284.145 58.9102C283.838 58.9701 283.546 59 283.269 59H275.363V56.0801H283.247C283.644 56.0801 283.943 55.979 284.145 55.7769C284.347 55.5747 284.448 55.2827 284.448 54.9009C284.411 54.1222 284.018 53.7329 283.269 53.7329H278.743C278.099 53.7329 277.553 53.6206 277.104 53.396C276.654 53.1714 276.288 52.8906 276.003 52.5537C275.726 52.2168 275.524 51.8537 275.397 51.4644C275.277 51.075 275.217 50.7119 275.217 50.375C275.217 49.7236 275.333 49.1771 275.565 48.7354C275.797 48.2861 276.089 47.923 276.441 47.646C276.793 47.369 277.175 47.1706 277.587 47.0508C277.998 46.9235 278.384 46.8599 278.743 46.8599H285.92V49.7798H278.766C278.616 49.7798 278.496 49.7985 278.406 49.8359C278.324 49.8659 278.26 49.9108 278.216 49.9707C278.178 50.0231 278.156 50.083 278.148 50.1504C278.141 50.2103 278.137 50.2702 278.137 50.3301C278.144 50.4499 278.167 50.5435 278.204 50.6108C278.242 50.6782 278.287 50.7269 278.339 50.7568C278.399 50.7868 278.463 50.8055 278.53 50.813C278.605 50.813 278.676 50.813 278.743 50.813H283.269C284.018 50.813 284.654 50.9478 285.178 51.2173C285.702 51.4868 286.126 51.8275 286.447 52.2393C286.769 52.6436 287.001 53.0853 287.144 53.5645C287.293 54.0436 287.368 54.4891 287.368 54.9009Z" fill="white"/>
</svg>
