<svg width="76" height="75" viewBox="0 0 76 75" fill="none" xmlns="http://www.w3.org/2000/svg">
<path id="Vector" d="M31.6806 28.4229L47.6102 37.4628L31.6806 46.5026V28.4229ZM75.3866 8.02057V66.8381C75.3866 71.2661 71.7891 74.8587 67.3549 74.8587H8.45555C4.02137 74.8587 0.423828 71.2661 0.423828 66.8381V8.02057C0.423828 3.59255 4.02137 0 8.45555 0H67.3549C71.7891 0 75.3866 3.59255 75.3866 8.02057ZM68.3588 37.4795C68.3588 37.4795 68.3588 27.5206 67.0872 22.7417C66.3844 20.1016 64.3263 18.0296 61.6992 17.3278C56.9638 16.0411 37.9052 16.0411 37.9052 16.0411C37.9052 16.0411 18.8466 16.0411 14.1112 17.3278C11.4842 18.0296 9.42605 20.1016 8.72328 22.7417C7.45159 27.5039 7.45159 37.4795 7.45159 37.4795C7.45159 37.4795 7.45159 47.4383 8.72328 52.2173C9.42605 54.8574 11.4842 56.8458 14.1112 57.5476C18.8466 58.8175 37.9052 58.8175 37.9052 58.8175C37.9052 58.8175 56.9638 58.8175 61.6992 57.5309C64.3263 56.8291 66.3844 54.8407 67.0872 52.2006C68.3588 47.4383 68.3588 37.4795 68.3588 37.4795Z" fill="white"/>
</svg>
