<svg width="75" height="75" viewBox="0 0 75 75" fill="none" xmlns="http://www.w3.org/2000/svg">
<g id="&#240;&#159;&#166;&#134; icon &#34;twitch&#34;">
<g id="Group">
<path id="Vector" fill-rule="evenodd" clip-rule="evenodd" d="M50.8198 36.0384C50.8198 38.4389 49.8654 40.7409 48.1668 42.4371L47.3944 43.2085C46.1935 44.4077 44.5657 45.0813 42.8685 45.0813H41.178C40.5633 45.0813 39.9737 45.3253 39.5388 45.7596L37.8966 47.3995C37.0411 48.2539 35.5797 47.6479 35.5797 46.4389C35.5797 45.6891 34.9719 45.0813 34.2221 45.0813H32.598C30.9512 45.0813 29.6162 43.7463 29.6162 42.0996V35.1559C29.6162 29.6742 34.06 25.2305 39.5416 25.2305H40.8198C46.3427 25.2305 50.8198 29.7076 50.8198 35.2305V36.0384ZM46.8443 31.1876C46.8443 30.4557 46.251 29.8623 45.519 29.8623C44.7871 29.8623 44.1938 30.4557 44.1938 31.1876V36.4775C44.1938 37.2094 44.7871 37.8028 45.519 37.8028C46.251 37.8028 46.8443 37.2094 46.8443 36.4775V31.1876ZM36.9049 31.1876C36.9049 30.4557 37.4982 29.8623 38.2302 29.8623C38.9621 29.8623 39.5554 30.4557 39.5554 31.1876V36.4775C39.5554 37.2094 38.9621 37.8028 38.2302 37.8028C37.4982 37.8028 36.9049 37.2094 36.9049 36.4775V31.1876Z" fill="white"/>
<path id="Vector_2" fill-rule="evenodd" clip-rule="evenodd" d="M0.456055 10.75C0.456055 5.22715 4.93321 0.75 10.4561 0.75H64.6692C70.1921 0.75 74.6692 5.22715 74.6692 10.75V64.8601C74.6692 70.3829 70.1921 74.8601 64.6692 74.8601H10.4561C4.93321 74.8601 0.456055 70.3829 0.456055 64.8601V10.75ZM32.4292 22.585C29.7794 22.585 27.238 23.6366 25.363 25.509L24.5987 26.2722C22.7203 28.148 21.6648 30.6937 21.6648 33.3482V49.0474C21.6648 51.2431 23.4448 53.0231 25.6405 53.0231H27.6769C28.748 53.0231 29.6163 53.8914 29.6163 54.9625C29.6163 56.6896 31.7039 57.5552 32.926 56.3348L35.272 53.9921C35.8933 53.3716 36.7356 53.0231 37.6137 53.0231H38.8928C40.59 53.0231 42.2178 52.3495 43.4187 51.1502L50.5366 44.0422C52.415 42.1665 53.4705 39.6208 53.4705 36.9662V32.585C53.4705 27.0621 48.9933 22.585 43.4705 22.585H32.4292Z" fill="white"/>
</g>
</g>
</svg>
