<svg width="76" height="75" viewBox="0 0 76 75" fill="none" xmlns="http://www.w3.org/2000/svg">
<g id="&#240;&#159;&#166;&#134; icon &#34;Instagram Square icon&#34;">
<path id="Vector" d="M38.2206 28.5165C36.4555 28.5171 34.7303 29.0404 33.263 30.0202C31.7956 30.9999 30.6522 32.3922 29.9772 34.0208C29.3022 35.6495 29.1259 37.4415 29.4706 39.1702C29.8154 40.8989 30.6657 42.4867 31.9141 43.7329C33.1624 44.979 34.7528 45.8275 36.484 46.1712C38.2152 46.5148 40.0096 46.3381 41.6403 45.6634C43.271 44.9887 44.6647 43.8463 45.6453 42.3807C46.6259 40.9151 47.1493 39.192 47.1493 37.4293C47.1475 35.0655 46.2061 32.799 44.532 31.1278C42.8578 29.4566 40.5878 28.5174 38.2206 28.5165ZM59.0881 21.6656C58.6337 20.5157 57.9476 19.4713 57.0723 18.5972C56.197 17.7231 55.1511 17.0379 53.9996 16.5842C50.4858 15.199 42.1194 15.5098 38.2206 15.5098C34.3219 15.5098 25.9639 15.1873 22.44 16.5842C21.2885 17.0379 20.2427 17.7231 19.3673 18.5972C18.492 19.4713 17.8059 20.5157 17.3515 21.6656C15.9661 25.1746 16.2756 33.5377 16.2756 37.4277C16.2756 41.3176 15.9661 49.6707 17.3582 53.1914C17.8126 54.3413 18.4987 55.3857 19.374 56.2598C20.2494 57.1339 21.2952 57.8191 22.4467 58.2728C25.9606 59.658 34.3269 59.3472 38.2273 59.3472C42.1278 59.3472 50.4824 59.6697 54.0063 58.2728C55.1578 57.8191 56.2037 57.1339 57.079 56.2598C57.9543 55.3857 58.6404 54.3413 59.0948 53.1914C60.492 49.6824 60.1707 41.3193 60.1707 37.4293C60.1707 33.5394 60.492 25.1879 59.0948 21.6672L59.0881 21.6656ZM38.2206 51.1311C35.5069 51.1311 32.8541 50.3275 30.5977 48.822C28.3414 47.3164 26.5827 45.1765 25.5442 42.6728C24.5057 40.1691 24.234 37.4141 24.7634 34.7562C25.2928 32.0984 26.5996 29.6569 28.5185 27.7407C30.4374 25.8245 32.8823 24.5195 35.5438 23.9908C38.2054 23.4621 40.9642 23.7335 43.4714 24.7705C45.9786 25.8076 48.1215 27.5638 49.6291 29.817C51.1368 32.0703 51.9415 34.7194 51.9415 37.4293C51.9437 39.2293 51.5903 41.012 50.9016 42.6754C50.2128 44.3388 49.2022 45.8501 47.9277 47.1229C46.6531 48.3956 45.1397 49.4048 43.474 50.0926C41.8083 50.7804 40.0231 51.1333 38.2206 51.1311ZM52.5071 26.3509C51.8736 26.3512 51.2542 26.164 50.7273 25.8127C50.2004 25.4615 49.7897 24.9621 49.547 24.3778C49.3044 23.7934 49.2407 23.1503 49.3641 22.5298C49.4875 21.9093 49.7924 21.3393 50.2402 20.8918C50.688 20.4444 51.2587 20.1396 51.88 20.0161C52.5013 19.8925 53.1453 19.9558 53.7306 20.1978C54.3159 20.4398 54.8162 20.8497 55.1682 21.3757C55.5202 21.9017 55.7081 22.5201 55.7081 23.1527C55.7098 23.5728 55.6285 23.9891 55.4688 24.3778C55.3091 24.7664 55.0741 25.1198 54.7773 25.4175C54.4806 25.7153 54.1278 25.9516 53.7394 26.1129C53.351 26.2742 52.9345 26.3574 52.5138 26.3576L52.5071 26.3509ZM67.6703 0H8.77098C6.64084 0 4.59794 0.845022 3.0917 2.34917C1.58546 3.85332 0.739258 5.89338 0.739258 8.02057L0.739258 66.8381C0.739258 68.9653 1.58546 71.0053 3.0917 72.5095C4.59794 74.0136 6.64084 74.8587 8.77098 74.8587H67.6703C69.8005 74.8587 71.8434 74.0136 73.3496 72.5095C74.8558 71.0053 75.702 68.9653 75.702 66.8381V8.02057C75.702 5.89338 74.8558 3.85332 73.3496 2.34917C71.8434 0.845022 69.8005 0 67.6703 0ZM64.8057 48.4576C64.5898 52.7403 63.6109 56.535 60.4802 59.653C57.3495 62.771 53.5529 63.7686 49.2693 63.9724C44.8502 64.2214 31.6012 64.2214 27.182 63.9724C22.8934 63.7569 19.1068 62.7777 15.9711 59.653C12.8354 56.5283 11.8498 52.7319 11.6457 48.4576C11.3964 44.043 11.3964 30.8107 11.6457 26.401C11.8615 22.1184 12.8287 18.3237 15.9711 15.2057C19.1135 12.0877 22.9102 11.1018 27.182 10.898C31.6012 10.649 44.8502 10.649 49.2693 10.898C53.5579 11.1135 57.3562 12.0927 60.4802 15.2174C63.6043 18.342 64.6015 22.1384 64.8057 26.4211C65.055 30.819 65.055 44.0396 64.8057 48.4576Z" fill="white"/>
</g>
</svg>
