<svg width="76" height="76" viewBox="0 0 76 76" fill="none" xmlns="http://www.w3.org/2000/svg">
<g id="&#240;&#159;&#166;&#134; icon &#34;social facebook&#34;">
<path id="Vector" d="M70.9845 0H4.14683C1.85637 0 0 1.85379 0 4.14107V70.8869C0 73.1731 1.85637 75.0269 4.14683 75.0269H40.1295V45.9728H30.3384V34.6499H40.1295V26.299C40.1295 16.608 46.0565 11.3322 54.7133 11.3322C58.8601 11.3322 62.4237 11.6396 63.463 11.7782V21.9058L57.4587 21.9089C52.7505 21.9089 51.8395 24.143 51.8395 27.4213V34.651H63.0675L61.6056 45.9738H51.8395V75.0269H70.9855C73.2749 75.0269 75.1313 73.1731 75.1313 70.8859V4.14107C75.1313 1.85379 73.2749 0 70.9845 0Z" fill="white"/>
</g>
</svg>
