<svg width="80" height="75" viewBox="0 0 80 75" fill="none" xmlns="http://www.w3.org/2000/svg">
<g id="&#240;&#159;&#166;&#134; icon &#34;discord&#34;">
<g id="Group">
<path id="Vector" fill-rule="evenodd" clip-rule="evenodd" d="M43.9893 43.839C44.5816 44.5479 45.2923 45.35 45.2923 45.35C49.6554 45.2194 51.3335 42.5145 51.3335 42.5145C51.3335 36.5076 48.4906 31.6386 48.4906 31.6386C45.6477 29.6239 42.943 29.6798 42.943 29.6798L42.6666 29.9783C46.0228 30.9484 47.5824 32.3475 47.5824 32.3475C45.5292 31.2842 43.5155 30.7618 41.64 30.5566C40.2185 30.4074 38.8563 30.4447 37.652 30.5939C37.5486 30.5939 37.4603 30.6082 37.3606 30.6243L37.3164 30.6312C36.6254 30.6872 34.9473 30.9297 32.8349 31.8065C32.1044 32.1236 31.6701 32.3475 31.6701 32.3475C31.6701 32.3475 33.3087 30.8738 36.8623 29.9037L36.6649 29.6798C36.6649 29.6798 33.9602 29.6239 31.1173 31.6386C31.1173 31.6386 28.2744 36.5076 28.2744 42.5145C28.2744 42.5145 29.9328 45.2194 34.2958 45.35C34.2958 45.35 35.0263 44.5105 35.6186 43.8017C33.1113 43.0928 32.1637 41.6004 32.1637 41.6004C32.1637 41.6004 32.3611 41.731 32.7164 41.9175C32.7362 41.9362 32.7559 41.9548 32.7954 41.9735C32.825 41.9921 32.8546 42.0061 32.8842 42.0201C32.9139 42.0341 32.9435 42.0481 32.9731 42.0667C33.4666 42.3279 33.9602 42.5331 34.4143 42.701C35.2237 42.9995 36.1911 43.298 37.3164 43.5032C38.7971 43.7643 40.5344 43.8576 42.4297 43.5218C43.3576 43.3726 44.3052 43.1114 45.2923 42.7197C45.9833 42.4772 46.7532 42.1227 47.5627 41.619C47.5627 41.619 46.5756 43.1487 43.9893 43.839ZM34.0984 38.7089C34.0984 37.5709 34.9868 36.6381 36.1121 36.6381C37.2374 36.6381 38.1456 37.5709 38.1258 38.7089C38.1258 39.8468 37.2374 40.7796 36.1121 40.7796C35.0065 40.7796 34.0984 39.8468 34.0984 38.7089ZM41.3044 38.7089C41.3044 37.5709 42.1928 36.6381 43.3181 36.6381C44.4434 36.6381 45.3318 37.5709 45.3318 38.7089C45.3318 39.8468 44.4434 40.7796 43.3181 40.7796C42.2125 40.7796 41.3044 39.8468 41.3044 38.7089Z" fill="white"/>
<path id="Vector_2" fill-rule="evenodd" clip-rule="evenodd" d="M66.8306 0C73.6451 0 79.1695 5.22008 79.1695 11.6594V62.9605C79.1695 69.3998 73.6451 74.6199 66.8306 74.6199H12.5392C5.72454 74.6199 0.200195 69.3998 0.200195 62.9605V11.6594C0.200195 5.22008 5.72454 0 12.5392 0H66.8306ZM26.4575 20.9868H52.9122C55.1431 20.9868 56.9594 22.7031 56.9594 24.8298V58.2968L52.7148 54.7523L50.326 52.663L47.799 50.443L48.8453 53.8942H26.4575C24.2266 53.8942 22.4103 52.178 22.4103 50.0513V24.8298C22.4103 22.7031 24.2266 20.9868 26.4575 20.9868Z" fill="white"/>
</g>
</g>
</svg>
