<svg width="76" height="76" viewBox="0 0 76 76" fill="none" xmlns="http://www.w3.org/2000/svg">
<g id="&#240;&#159;&#166;&#134; icon &#34;Twitter Square&#34;">
<path id="Vector" d="M67.8803 0H8.84861C4.40446 0 0.798828 3.60062 0.798828 8.0386V66.9883C0.798828 71.4263 4.40446 75.0269 8.84861 75.0269H67.8803C72.3245 75.0269 75.9301 71.4263 75.9301 66.9883V8.0386C75.9301 3.60062 72.3245 0 67.8803 0ZM59.6796 26.5944C59.7132 27.0633 59.7132 27.549 59.7132 28.0179C59.7132 42.5376 48.6447 59.2679 28.4196 59.2679C22.1811 59.2679 16.3953 57.4592 11.5319 54.3443C12.4207 54.4448 13.276 54.4783 14.1816 54.4783C19.3301 54.4783 24.0593 52.7366 27.8327 49.7891C23.0028 49.6886 18.9444 46.5234 17.5524 42.1692C19.2462 42.4204 20.7723 42.4204 22.5165 41.9682C17.4854 40.9466 13.712 36.5254 13.712 31.1831V31.0491C15.171 31.8697 16.8816 32.3721 18.676 32.4391C17.1674 31.437 15.9307 30.0775 15.0762 28.482C14.2218 26.8865 13.7761 25.1046 13.7791 23.2952C13.7791 21.2521 14.3158 19.3764 15.2717 17.7519C20.6885 24.4172 28.8221 28.7715 37.9452 29.2404C36.3856 21.788 41.9701 15.7423 48.6783 15.7423C51.8479 15.7423 54.6988 17.0653 56.7113 19.2089C59.1933 18.74 61.5747 17.8189 63.6877 16.5629C62.866 19.1084 61.1386 21.2521 58.8579 22.6086C61.0716 22.3741 63.2182 21.7545 65.1971 20.9004C63.7045 23.0942 61.8262 25.0369 59.6796 26.5944Z" fill="white"/>
</g>
</svg>
