<svg width="76" height="75" viewBox="0 0 76 75" fill="none" xmlns="http://www.w3.org/2000/svg">
<g id="&#240;&#159;&#166;&#134; icon &#34;social linkedin&#34;">
<path id="Vector" d="M70.1775 0H6.30485C3.25031 0 0.771484 2.41716 0.771484 5.39365V69.4531C0.771484 72.4338 3.25031 74.854 6.30485 74.854H70.1775C73.2341 74.854 75.7296 72.4338 75.7296 69.4531V5.39365C75.7296 2.41716 73.2341 0 70.1775 0ZM23.0028 63.786H11.8799V28.0651H23.0028V63.786ZM17.4413 23.1808C13.8777 23.1808 10.997 20.2969 10.997 16.7413C10.997 13.1909 13.8777 10.307 17.4413 10.307C20.9966 10.307 23.8846 13.1909 23.8846 16.7413C23.8846 20.2969 20.9966 23.1808 17.4413 23.1808ZM64.6421 63.786H53.5368V46.4157C53.5368 42.2717 53.4556 36.9436 47.7577 36.9436C41.9714 36.9436 41.0896 41.4567 41.0896 46.1153V63.7871H29.976V28.0651H40.6419V32.9431H40.7939C42.2785 30.136 45.9057 27.1741 51.3151 27.1741C62.5651 27.1741 64.6431 34.5701 64.6431 44.192L64.6421 63.786Z" fill="white"/>
</g>
</svg>
